<svg width="82" height="54" viewBox="0 0 82 54" fill="none" xmlns="http://www.w3.org/2000/svg">
<g filter="url(#filter0_d_504_3)">
<path d="M19.2614 45.5966C16.4489 45.5966 13.9418 45.1136 11.7401 44.1477C9.55256 43.1818 7.8125 41.8395 6.51989 40.1207C5.24148 38.3878 4.54545 36.3778 4.43182 34.0909H9.80114C9.91477 35.4972 10.3977 36.7116 11.25 37.7344C12.1023 38.7429 13.2173 39.5241 14.5952 40.0781C15.973 40.6321 17.5 40.9091 19.1761 40.9091C21.0511 40.9091 22.7131 40.5824 24.1619 39.929C25.6108 39.2756 26.7472 38.3665 27.571 37.2017C28.3949 36.0369 28.8068 34.6875 28.8068 33.1534C28.8068 31.5483 28.4091 30.1349 27.6136 28.9134C26.8182 27.6776 25.6534 26.7116 24.1193 26.0156C22.5852 25.3196 20.7102 24.9716 18.4943 24.9716H15V20.2841H18.4943C20.2273 20.2841 21.7472 19.9716 23.054 19.3466C24.375 18.7216 25.4048 17.8409 26.1435 16.7045C26.8963 15.5682 27.2727 14.233 27.2727 12.6989C27.2727 11.2216 26.946 9.93608 26.2926 8.84233C25.6392 7.74858 24.7159 6.89631 23.5227 6.28551C22.3438 5.67472 20.9517 5.36932 19.3466 5.36932C17.8409 5.36932 16.4205 5.64631 15.0852 6.20028C13.7642 6.74006 12.6847 7.52841 11.8466 8.56534C11.0085 9.58807 10.554 10.8239 10.483 12.2727H5.36932C5.45455 9.98579 6.14347 7.98295 7.43608 6.2642C8.72869 4.53125 10.419 3.18182 12.5071 2.21591C14.6094 1.25 16.9176 0.767044 19.4318 0.767044C22.1307 0.767044 24.446 1.31392 26.3778 2.40767C28.3097 3.48721 29.794 4.91477 30.831 6.69034C31.8679 8.46591 32.3864 10.3835 32.3864 12.4432C32.3864 14.9006 31.7401 16.9957 30.4474 18.7287C29.169 20.4616 27.429 21.6619 25.2273 22.3295V22.6705C27.983 23.125 30.1349 24.2969 31.6832 26.1861C33.2315 28.0611 34.0057 30.3835 34.0057 33.1534C34.0057 35.5256 33.3594 37.6562 32.0668 39.5455C30.7884 41.4205 29.0412 42.8977 26.8253 43.9773C24.6094 45.0568 22.0881 45.5966 19.2614 45.5966ZM56.9531 45H43.4872V1.36364H57.5497C61.7827 1.36364 65.4048 2.23722 68.4162 3.98438C71.4276 5.71733 73.7358 8.21023 75.3409 11.4631C76.946 14.7017 77.7486 18.5795 77.7486 23.0966C77.7486 27.642 76.9389 31.5554 75.3196 34.8366C73.7003 38.1037 71.3423 40.6179 68.2457 42.3793C65.1491 44.1264 61.3849 45 56.9531 45ZM48.7713 40.3125H56.6122C60.2202 40.3125 63.2102 39.6165 65.5824 38.2244C67.9545 36.8324 69.723 34.8509 70.8878 32.2798C72.0526 29.7088 72.6349 26.6477 72.6349 23.0966C72.6349 19.5739 72.0597 16.5412 70.9091 13.9986C69.7585 11.4418 68.0398 9.48153 65.7528 8.1179C63.4659 6.74006 60.6179 6.05114 57.2088 6.05114H48.7713V40.3125Z" fill="#F01212"/>
<path d="M11.7401 44.1477L11.3361 45.0625L11.3383 45.0635L11.7401 44.1477ZM6.51989 40.1207L5.71513 40.7144L5.72068 40.7218L6.51989 40.1207ZM4.43182 34.0909V33.0909H3.3809L3.43305 34.1405L4.43182 34.0909ZM9.80114 34.0909L10.7979 34.0104L10.7236 33.0909H9.80114V34.0909ZM11.25 37.7344L10.4818 38.3746L10.4862 38.3798L11.25 37.7344ZM14.5952 40.0781L14.2221 41.0059L14.2221 41.0059L14.5952 40.0781ZM27.571 37.2017L26.7546 36.6242L26.7546 36.6242L27.571 37.2017ZM27.6136 28.9134L26.7728 29.4546L26.7756 29.459L27.6136 28.9134ZM24.1193 26.0156L23.7062 26.9263L23.7062 26.9263L24.1193 26.0156ZM15 24.9716H14V25.9716H15V24.9716ZM15 20.2841V19.2841H14V20.2841H15ZM23.054 19.3466L22.6263 18.4426L22.6225 18.4445L23.054 19.3466ZM26.1435 16.7045L25.3098 16.1522L25.305 16.1596L26.1435 16.7045ZM26.2926 8.84233L27.1511 8.32947L27.1511 8.32947L26.2926 8.84233ZM23.5227 6.28551L23.0627 7.17344L23.0671 7.17566L23.5227 6.28551ZM15.0852 6.20028L15.4635 7.126L15.4684 7.12394L15.0852 6.20028ZM11.8466 8.56534L12.6201 9.19918L12.6243 9.19393L11.8466 8.56534ZM10.483 12.2727V13.2727H11.4351L11.4818 12.3217L10.483 12.2727ZM5.36932 12.2727L4.37001 12.2355L4.33136 13.2727H5.36932V12.2727ZM7.43608 6.2642L8.23529 6.86526L8.23765 6.8621L7.43608 6.2642ZM12.5071 2.21591L12.0896 1.30723L12.0873 1.30831L12.5071 2.21591ZM26.3778 2.40767L25.8851 3.27789L25.89 3.28061L26.3778 2.40767ZM30.831 6.69034L29.9674 7.19464L29.9674 7.19464L30.831 6.69034ZM30.4474 18.7287L29.6459 18.1308L29.6427 18.135L30.4474 18.7287ZM25.2273 22.3295L24.9371 21.3726L24.2273 21.5878V22.3295H25.2273ZM25.2273 22.6705H24.2273V23.519L25.0645 23.6571L25.2273 22.6705ZM31.6832 26.1861L30.9098 26.82L30.9122 26.8228L31.6832 26.1861ZM32.0668 39.5455L31.2415 38.9808L31.2405 38.9821L32.0668 39.5455ZM26.8253 43.9773L27.2633 44.8763L27.2633 44.8763L26.8253 43.9773ZM19.2614 44.5966C16.5639 44.5966 14.1972 44.1337 12.1418 43.232L11.3383 45.0635C13.6863 46.0936 16.3338 46.5966 19.2614 46.5966V44.5966ZM12.144 43.2329C10.095 42.3282 8.4978 41.087 7.31909 39.5197L5.72068 40.7218C7.1272 42.592 9.01009 44.0354 11.3361 45.0625L12.144 43.2329ZM7.32461 39.5271C6.17052 37.9627 5.53511 36.1448 5.43059 34.0413L3.43305 34.1405C3.5558 36.6109 4.31244 38.8129 5.71516 40.7144L7.32461 39.5271ZM4.43182 35.0909H9.80114V33.0909H4.43182V35.0909ZM8.80439 34.1715C8.93359 35.7704 9.4893 37.1836 10.4818 38.3746L12.0182 37.0942C11.3062 36.2397 10.896 35.224 10.7979 34.0104L8.80439 34.1715ZM10.4862 38.3798C11.4563 39.5278 12.7121 40.3988 14.2221 41.0059L14.9682 39.1503C13.7226 38.6495 12.7482 37.958 12.0138 37.0889L10.4862 38.3798ZM14.2221 41.0059C15.7329 41.6133 17.3885 41.9091 19.1761 41.9091V39.9091C17.6115 39.9091 16.2132 39.6509 14.9682 39.1503L14.2221 41.0059ZM19.1761 41.9091C21.1677 41.9091 22.9738 41.5618 24.573 40.8406L23.7508 39.0174C22.4523 39.603 20.9346 39.9091 19.1761 39.9091V41.9091ZM24.573 40.8406C26.1654 40.1225 27.4493 39.1056 28.3874 37.7792L26.7546 36.6242C26.0451 37.6274 25.0562 38.4287 23.7508 39.0174L24.573 40.8406ZM28.3874 37.7792C29.3399 36.4326 29.8068 34.8779 29.8068 33.1534H27.8068C27.8068 34.4971 27.4499 35.6413 26.7546 36.6242L28.3874 37.7792ZM29.8068 33.1534C29.8068 31.3749 29.3634 29.7679 28.4516 28.3677L26.7756 29.459C27.4548 30.502 27.8068 31.7217 27.8068 33.1534H29.8068ZM28.4545 28.3721C27.5404 26.952 26.2154 25.8685 24.5325 25.105L23.7062 26.9263C25.0914 27.5548 26.096 28.4032 26.7728 29.4546L28.4545 28.3721ZM24.5325 25.105C22.8345 24.3346 20.8098 23.9716 18.4943 23.9716V25.9716C20.6106 25.9716 22.3359 26.3046 23.7062 26.9263L24.5325 25.105ZM18.4943 23.9716H15V25.9716H18.4943V23.9716ZM16 24.9716V20.2841H14V24.9716H16ZM15 21.2841H18.4943V19.2841H15V21.2841ZM18.4943 21.2841C20.3476 21.2841 22.02 20.9496 23.4854 20.2487L22.6225 18.4445C21.4743 18.9936 20.1069 19.2841 18.4943 19.2841V21.2841ZM23.4816 20.2505C24.9566 19.5527 26.1343 18.5535 26.9819 17.2495L25.305 16.1596C24.6753 17.1283 23.7934 17.8905 22.6263 18.4427L23.4816 20.2505ZM26.9771 17.2568C27.8517 15.9367 28.2727 14.4039 28.2727 12.6989H26.2727C26.2727 14.062 25.9409 15.1997 25.3098 16.1523L26.9771 17.2568ZM28.2727 12.6989C28.2727 11.0702 27.911 9.60156 27.1511 8.32947L25.4341 9.35518C25.981 10.2706 26.2727 11.373 26.2727 12.6989H28.2727ZM27.1511 8.32947C26.3963 7.06609 25.3295 6.08698 23.9784 5.39536L23.0671 7.17566C24.1023 7.70563 24.8821 8.43106 25.4341 9.35518L27.1511 8.32947ZM23.9827 5.39759C22.6349 4.6993 21.0787 4.36932 19.3466 4.36932V6.36932C20.8247 6.36932 22.0526 6.65013 23.0627 7.17343L23.9827 5.39759ZM19.3466 4.36932C17.715 4.36932 16.1638 4.67016 14.702 5.27663L15.4684 7.12394C16.6772 6.62246 17.9669 6.36932 19.3466 6.36932V4.36932ZM14.707 5.27458C13.2412 5.8735 12.0203 6.7595 11.0689 7.93676L12.6243 9.19393C13.349 8.29732 14.2872 7.60661 15.4635 7.12599L14.707 5.27458ZM11.0731 7.93152C10.0859 9.13622 9.5646 10.5828 9.48415 12.2238L11.4818 12.3217C11.5434 11.065 11.9311 10.0399 12.6201 9.19916L11.0731 7.93152ZM10.483 11.2727H5.36932V13.2727H10.483V11.2727ZM6.36862 12.31C6.44677 10.2132 7.0734 8.41018 8.23529 6.86526L6.63687 5.66315C5.21353 7.55572 4.46233 9.75841 4.37001 12.2355L6.36862 12.31ZM8.23765 6.8621C9.42439 5.27109 10.9799 4.02417 12.9269 3.12351L12.0873 1.30831C9.85816 2.33946 8.03299 3.79141 6.63451 5.66631L8.23765 6.8621ZM12.9246 3.12459C14.8849 2.22392 17.0491 1.76704 19.4318 1.76704V-0.232956C16.7862 -0.232956 14.3339 0.276079 12.0896 1.30723L12.9246 3.12459ZM19.4318 1.76704C21.9951 1.76704 24.1329 2.28577 25.8852 3.27787L26.8705 1.53746C24.7592 0.342064 22.2663 -0.232956 19.4318 -0.232956V1.76704ZM25.89 3.28061C27.6782 4.27991 29.0274 5.58504 29.9674 7.19464L31.6945 6.18604C30.5606 4.24451 28.9411 2.69452 26.8657 1.53473L25.89 3.28061ZM29.9674 7.19464C30.9148 8.8169 31.3864 10.5604 31.3864 12.4432H33.3864C33.3864 10.2066 32.821 8.11492 31.6945 6.18604L29.9674 7.19464ZM31.3864 12.4432C31.3864 14.7159 30.7924 16.5937 29.6459 18.1308L31.249 19.3266C32.6877 17.3978 33.3864 15.0853 33.3864 12.4432H31.3864ZM29.6427 18.135C28.5012 19.6824 26.9476 20.7629 24.9371 21.3726L25.5175 23.2865C27.9103 22.5609 29.8369 21.2409 31.2522 19.3223L29.6427 18.135ZM24.2273 22.3295V22.6705H26.2273V22.3295H24.2273ZM25.0645 23.6571C27.6172 24.0782 29.5375 25.1455 30.9098 26.82L32.4567 25.5522C30.7324 23.4483 28.3487 22.1718 25.39 21.6838L25.0645 23.6571ZM30.9122 26.8228C32.2921 28.4939 33.0057 30.5817 33.0057 33.1534H35.0057C35.0057 30.1853 34.171 27.6283 32.4543 25.5493L30.9122 26.8228ZM33.0057 33.1534C33.0057 35.3318 32.416 37.2642 31.2415 38.9808L32.8921 40.1101C34.3028 38.0483 35.0057 35.7193 35.0057 33.1534H33.0057ZM31.2405 38.9821C30.0685 40.7011 28.4607 42.0682 26.3873 43.0783L27.2633 44.8763C29.6217 43.7273 31.5082 42.1398 32.893 40.1088L31.2405 38.9821ZM26.3873 43.0783C24.3266 44.0822 21.9586 44.5966 19.2614 44.5966V46.5966C22.2175 46.5966 24.8922 46.0314 27.2633 44.8763L26.3873 43.0783ZM43.4872 45H42.4872V46H43.4872V45ZM43.4872 1.36364V0.363635H42.4872V1.36364H43.4872ZM68.4162 3.98438L67.9143 4.84934L67.9174 4.8511L68.4162 3.98438ZM75.3409 11.4631L74.4441 11.9056L74.4449 11.9071L75.3409 11.4631ZM75.3196 34.8366L76.2156 35.2807L76.2163 35.2792L75.3196 34.8366ZM68.2457 42.3793L68.7371 43.2502L68.7402 43.2485L68.2457 42.3793ZM48.7713 40.3125H47.7713V41.3125H48.7713V40.3125ZM70.9091 13.9986L69.9972 14.4089L69.998 14.4108L70.9091 13.9986ZM65.7528 8.1179L65.2368 8.97446L65.2407 8.9768L65.7528 8.1179ZM48.7713 6.05114V5.05114H47.7713V6.05114H48.7713ZM56.9531 44H43.4872V46H56.9531V44ZM44.4872 45V1.36364H42.4872V45H44.4872ZM43.4872 2.36364H57.5497V0.363635H43.4872V2.36364ZM57.5497 2.36364C61.6444 2.36364 65.0852 3.2079 67.9144 4.84934L68.918 3.11941C65.7244 1.26653 61.921 0.363635 57.5497 0.363635V2.36364ZM67.9174 4.8511C70.7492 6.48071 72.9226 8.82219 74.4441 11.9056L76.2377 11.0206C74.5489 7.59827 72.1059 4.95395 68.915 3.11765L67.9174 4.8511ZM74.4449 11.9071C75.9667 14.9776 76.7486 18.696 76.7486 23.0966H78.7486C78.7486 18.463 77.9254 14.4258 76.2369 11.019L74.4449 11.9071ZM76.7486 23.0966C76.7486 27.5249 75.9598 31.2798 74.4229 34.3941L76.2163 35.2792C77.918 31.831 78.7486 27.7592 78.7486 23.0966H76.7486ZM74.4236 34.3926C72.8906 37.4855 70.6704 39.8496 67.7513 41.51L68.7402 43.2485C72.0143 41.3862 74.51 38.7219 76.2156 35.2807L74.4236 34.3926ZM67.7543 41.5083C64.8404 43.1524 61.2547 44 56.9531 44V46C61.5152 46 65.4579 45.1004 68.7371 43.2502L67.7543 41.5083ZM48.7713 41.3125H56.6122V39.3125H48.7713V41.3125ZM56.6122 41.3125C60.3441 41.3125 63.5222 40.5929 66.0885 39.0869L65.0763 37.362C62.8983 38.6401 60.0962 39.3125 56.6122 39.3125V41.3125ZM66.0885 39.0869C68.6437 37.5874 70.551 35.4464 71.7987 32.6925L69.9769 31.8672C68.895 34.2553 67.2654 36.0773 65.0763 37.362L66.0885 39.0869ZM71.7987 32.6925C73.0353 29.9629 73.6349 26.7545 73.6349 23.0966H71.6349C71.6349 26.541 71.0698 29.4547 69.9769 31.8672L71.7987 32.6925ZM73.6349 23.0966C73.6349 19.4678 73.0426 16.2877 71.8202 13.5863L69.998 14.4108C71.0767 16.7947 71.6349 19.68 71.6349 23.0966H73.6349ZM71.821 13.5882C70.591 10.8549 68.7376 8.73337 66.265 7.25899L65.2407 8.9768C67.3419 10.2297 68.926 12.0286 69.9972 14.4089L71.821 13.5882ZM66.2689 7.26134C63.7886 5.76699 60.7502 5.05114 57.2088 5.05114V7.05114C60.4856 7.05114 63.1432 7.71312 65.2368 8.97445L66.2689 7.26134ZM57.2088 5.05114H48.7713V7.05114H57.2088V5.05114ZM47.7713 6.05114V40.3125H49.7713V6.05114H47.7713Z" fill="#0B0707"/>
</g>
<defs>
<filter id="filter0_d_504_3" x="0.431763" y="0.76709" width="81.3168" height="52.8295" filterUnits="userSpaceOnUse" color-interpolation-filters="sRGB">
<feFlood flood-opacity="0" result="BackgroundImageFix"/>
<feColorMatrix in="SourceAlpha" type="matrix" values="0 0 0 0 0 0 0 0 0 0 0 0 0 0 0 0 0 0 127 0" result="hardAlpha"/>
<feOffset dy="4"/>
<feGaussianBlur stdDeviation="2"/>
<feComposite in2="hardAlpha" operator="out"/>
<feColorMatrix type="matrix" values="0 0 0 0 0 0 0 0 0 0 0 0 0 0 0 0 0 0 0.25 0"/>
<feBlend mode="normal" in2="BackgroundImageFix" result="effect1_dropShadow_504_3"/>
<feBlend mode="normal" in="SourceGraphic" in2="effect1_dropShadow_504_3" result="shape"/>
</filter>
</defs>
</svg>
